<?xml version="1.0" encoding="UTF-8" standalone="no"?>
<!-- Created with Inkscape (http://www.inkscape.org/) -->

<svg
   xmlns:dc="http://purl.org/dc/elements/1.1/"
   xmlns:cc="http://creativecommons.org/ns#"
   xmlns:rdf="http://www.w3.org/1999/02/22-rdf-syntax-ns#"
   xmlns:svg="http://www.w3.org/2000/svg"
   xmlns="http://www.w3.org/2000/svg"
   xmlns:sodipodi="http://sodipodi.sourceforge.net/DTD/sodipodi-0.dtd"
   xmlns:inkscape="http://www.inkscape.org/namespaces/inkscape"
   width="622.85712"
   height="625.71429"
   id="svg2"
   version="1.1"
   inkscape:version="0.48.4 r9939"
   sodipodi:docname="logo.svg">
  <defs
     id="defs4" />
  <sodipodi:namedview
     id="base"
     pagecolor="#ffffff"
     bordercolor="#666666"
     borderopacity="1.0"
     inkscape:pageopacity="0.0"
     inkscape:pageshadow="2"
     inkscape:zoom="0.7"
     inkscape:cx="99.285741"
     inkscape:cy="396.30246"
     inkscape:document-units="px"
     inkscape:current-layer="layer1"
     showgrid="false"
     inkscape:window-width="1680"
     inkscape:window-height="1026"
     inkscape:window-x="0"
     inkscape:window-y="24"
     inkscape:window-maximized="1"
     fit-margin-top="0"
     fit-margin-left="0"
     fit-margin-right="0"
     fit-margin-bottom="0"
     showguides="true"
     inkscape:guide-bbox="true" />
  <metadata
     id="metadata7">
    <rdf:RDF>
      <cc:Work
         rdf:about="">
        <dc:format>image/svg+xml</dc:format>
        <dc:type
           rdf:resource="http://purl.org/dc/dcmitype/StillImage" />
        <dc:title></dc:title>
      </cc:Work>
    </rdf:RDF>
  </metadata>
  <g
     inkscape:label="Layer 1"
     inkscape:groupmode="layer"
     id="layer1"
     transform="translate(-71.428589,-132.36218)">
    <path
       sodipodi:type="arc"
       style="fill:#0d7689;fill-opacity:1;fill-rule:evenodd;stroke:none"
       id="path2985"
       sodipodi:cx="382.85715"
       sodipodi:cy="445.21933"
       sodipodi:rx="311.42856"
       sodipodi:ry="312.85715"
       d="m 694.28571,445.21933 c 0,172.78623 -139.43132,312.85715 -311.42856,312.85715 -171.99725,0 -311.428561,-140.07092 -311.428561,-312.85715 0,-172.78623 139.431311,-312.85715 311.428561,-312.85715 171.99724,0 311.42856,140.07092 311.42856,312.85715 z" />
    <rect
       style="fill:#ffffff"
       id="rect2987"
       width="411.42856"
       height="77.14286"
       x="185.71429"
       y="565.79077" />
    <flowRoot
       xml:space="preserve"
       id="flowRoot2997"
       style="font-size:40px;font-style:normal;font-weight:normal;line-height:125%;letter-spacing:0px;word-spacing:0px;opacity:0.01000001;fill:#0d7689;fill-opacity:1;stroke:none;font-family:Sans"><flowRegion
         id="flowRegion2999"><rect
           id="rect3001"
           width="280"
           height="168.57143"
           x="154.28572"
           y="275.21933"
           style="fill:#0d7689;fill-opacity:1" /></flowRegion><flowPara
         id="flowPara3003" /></flowRoot>    <path
       style="opacity:0.01000001000000000;fill:none;fill-opacity:1;stroke:none"
       d="m 118.4286,259.98326 0,-154.28572 63.21428,0.0256 63.21429,0.0256 37.95267,104.61727 c 20.87397,57.53949 38.52539,104.50453 39.22536,104.36674 0.69996,-0.13771 17.96274,-46.74492 38.36173,-103.57142 20.39897,-56.82651 37.78328,-103.79322 38.63178,-104.37047 0.84852,-0.57726 29.66775,-1.0594 64.04275,-1.07143 l 62.5,-0.0219 0,154.28572 0,154.28571 -39.27775,0 -39.27773,0 -0.36512,-122.32251 -0.36512,-122.32251 -42.13031,122.34385 -42.1303,122.34386 -40.62702,-0.37849 -40.62703,-0.37848 -41.54071,-120.9647 c -22.84739,-66.5306 -42.01731,-121.44131 -42.59981,-122.02382 -0.58251,-0.58251 -1.0591,54.01233 -1.0591,121.32185 l 0,122.38095 -38.57143,0 -38.57143,0 0,-154.28571 z"
       id="path4154"
       inkscape:connector-curvature="0"
       transform="translate(71.428589,132.36218)" />
    <flowRoot
       xml:space="preserve"
       id="flowRoot4187"
       style="fill:black;stroke:none;stroke-opacity:1;stroke-width:1px;stroke-linejoin:miter;stroke-linecap:butt;fill-opacity:1;font-family:Sans;font-style:normal;font-weight:normal;font-size:40px;line-height:125%;letter-spacing:0px;word-spacing:0px"><flowRegion
         id="flowRegion4189"><rect
           id="rect4191"
           width="150"
           height="248.57143"
           x="145.71428"
           y="67.142868" /></flowRegion><flowPara
         id="flowPara4193" /></flowRoot>    <text
       xml:space="preserve"
       style="font-size:496.13827515px;font-style:normal;font-variant:normal;font-weight:bold;font-stretch:normal;line-height:125%;letter-spacing:0px;word-spacing:0px;fill:#ffffff;fill-opacity:1;stroke:none;font-family:Arial;-inkscape-font-specification:Arial Bold"
       x="119.48144"
       y="659.62201"
       id="text4195"
       sodipodi:linespacing="125%"
       transform="scale(1.2003932,0.83306036)"><tspan
         sodipodi:role="line"
         id="tspan4197"
         x="119.48144"
         y="659.62201">M</tspan></text>
  </g>
</svg>
